<svg width="668" height="170" viewBox="0 0 668 170" fill="none" xmlns="http://www.w3.org/2000/svg">
<path d="M72.4564 120V50.1818H98.6382C104.002 50.1818 108.502 51.1818 112.138 53.1818C115.797 55.1818 118.559 57.9318 120.422 61.4318C122.309 64.909 123.252 68.8636 123.252 73.2954C123.252 77.7727 122.309 81.75 120.422 85.2272C118.536 88.7045 115.752 91.4431 112.07 93.4431C108.388 95.4204 103.854 96.409 98.4677 96.409H81.1155V86.0113H96.7632C99.8995 86.0113 102.468 85.4659 104.468 84.375C106.468 83.284 107.945 81.784 108.9 79.875C109.877 77.9659 110.365 75.7727 110.365 73.2954C110.365 70.8181 109.877 68.6363 108.9 66.75C107.945 64.8636 106.456 63.3977 104.434 62.3522C102.434 61.284 99.8541 60.75 96.695 60.75H85.1041V120H72.4564Z" fill="white"/>
<path d="M177.002 60.784V50.1818H232.706V60.784H211.127V120H198.581V60.784H177.002Z" fill="white"/>
<path d="M234.137 60.784V50.1818H289.841V60.784H268.262V120H255.716V60.784H234.137Z" fill="white"/>
<path d="M313.481 50.1818H323.572L347.299 108.136H348.117L371.844 50.1818H381.935V120H374.026V66.9545H373.344L351.526 120H343.89L322.072 66.9545H321.39V120H313.481V50.1818Z" fill="white"/>
<path d="M406.965 121.227C403.647 121.227 400.636 120.602 397.931 119.352C395.227 118.079 393.079 116.25 391.488 113.864C389.897 111.455 389.102 108.545 389.102 105.136C389.102 102.136 389.692 99.7045 390.874 97.8409C392.056 95.9545 393.636 94.4772 395.613 93.409C397.59 92.3409 399.772 91.5454 402.158 91.0227C404.568 90.4772 406.988 90.0454 409.42 89.7272C412.602 89.3181 415.181 89.0113 417.158 88.8068C419.158 88.5795 420.613 88.2045 421.522 87.6818C422.454 87.159 422.92 86.25 422.92 84.9545V84.6818C422.92 81.3181 421.999 78.7045 420.158 76.8409C418.34 74.9772 415.579 74.0454 411.874 74.0454C408.033 74.0454 405.022 74.8863 402.84 76.5681C400.658 78.25 399.124 80.0454 398.238 81.9545L390.602 79.2272C391.965 76.0454 393.783 73.5681 396.056 71.7954C398.352 70 400.852 68.75 403.556 68.0454C406.283 67.3181 408.965 66.9545 411.602 66.9545C413.283 66.9545 415.215 67.159 417.397 67.5681C419.602 67.9545 421.727 68.7613 423.772 69.9886C425.84 71.2159 427.556 73.0681 428.92 75.5454C430.283 78.0227 430.965 81.3409 430.965 85.5V120H422.92V112.909H422.511C421.965 114.045 421.056 115.261 419.783 116.557C418.511 117.852 416.818 118.955 414.704 119.864C412.59 120.773 410.011 121.227 406.965 121.227ZM408.193 114C411.374 114 414.056 113.375 416.238 112.125C418.443 110.875 420.102 109.261 421.215 107.284C422.352 105.307 422.92 103.227 422.92 101.045V93.6818C422.579 94.0909 421.829 94.4659 420.67 94.8068C419.533 95.125 418.215 95.409 416.715 95.659C415.238 95.8863 413.795 96.0909 412.386 96.2727C410.999 96.4318 409.874 96.5681 409.011 96.6818C406.92 96.9545 404.965 97.3977 403.147 98.0113C401.352 98.6022 399.897 99.5 398.783 100.704C397.693 101.886 397.147 103.5 397.147 105.545C397.147 108.341 398.181 110.455 400.249 111.886C402.34 113.295 404.988 114 408.193 114Z" fill="white"/>
<path d="M447.455 88.5V120H439.41V67.6363H447.183V75.8181H447.864C449.092 73.159 450.955 71.0227 453.455 69.409C455.955 67.7727 459.183 66.9545 463.137 66.9545C466.683 66.9545 469.785 67.6818 472.444 69.1363C475.103 70.5681 477.171 72.75 478.649 75.6818C480.126 78.5909 480.864 82.2727 480.864 86.7272V120H472.819V87.2727C472.819 83.159 471.751 79.9545 469.614 77.659C467.478 75.3409 464.546 74.1818 460.819 74.1818C458.251 74.1818 455.955 74.7386 453.933 75.8522C451.933 76.9659 450.353 78.5909 449.194 80.7272C448.035 82.8636 447.455 85.4545 447.455 88.5Z" fill="white"/>
<path d="M504.735 121.227C501.417 121.227 498.406 120.602 495.701 119.352C492.997 118.079 490.849 116.25 489.258 113.864C487.667 111.455 486.872 108.545 486.872 105.136C486.872 102.136 487.463 99.7045 488.644 97.8409C489.826 95.9545 491.406 94.4772 493.383 93.409C495.36 92.3409 497.542 91.5454 499.928 91.0227C502.338 90.4772 504.758 90.0454 507.19 89.7272C510.372 89.3181 512.951 89.0113 514.928 88.8068C516.928 88.5795 518.383 88.2045 519.292 87.6818C520.224 87.159 520.69 86.25 520.69 84.9545V84.6818C520.69 81.3181 519.769 78.7045 517.928 76.8409C516.11 74.9772 513.349 74.0454 509.644 74.0454C505.803 74.0454 502.792 74.8863 500.61 76.5681C498.428 78.25 496.894 80.0454 496.008 81.9545L488.372 79.2272C489.735 76.0454 491.553 73.5681 493.826 71.7954C496.122 70 498.622 68.75 501.326 68.0454C504.053 67.3181 506.735 66.9545 509.372 66.9545C511.053 66.9545 512.985 67.159 515.167 67.5681C517.372 67.9545 519.497 68.7613 521.542 69.9886C523.61 71.2159 525.326 73.0681 526.69 75.5454C528.053 78.0227 528.735 81.3409 528.735 85.5V120H520.69V112.909H520.281C519.735 114.045 518.826 115.261 517.553 116.557C516.281 117.852 514.588 118.955 512.474 119.864C510.36 120.773 507.781 121.227 504.735 121.227ZM505.963 114C509.144 114 511.826 113.375 514.008 112.125C516.213 110.875 517.872 109.261 518.985 107.284C520.122 105.307 520.69 103.227 520.69 101.045V93.6818C520.349 94.0909 519.599 94.4659 518.44 94.8068C517.303 95.125 515.985 95.409 514.485 95.659C513.008 95.8863 511.565 96.0909 510.156 96.2727C508.769 96.4318 507.644 96.5681 506.781 96.6818C504.69 96.9545 502.735 97.3977 500.917 98.0113C499.122 98.6022 497.667 99.5 496.553 100.704C495.463 101.886 494.917 103.5 494.917 105.545C494.917 108.341 495.951 110.455 498.019 111.886C500.11 113.295 502.758 114 505.963 114Z" fill="white"/>
<path d="M558.316 140.727C554.43 140.727 551.089 140.227 548.294 139.227C545.498 138.25 543.169 136.954 541.305 135.341C539.464 133.75 537.998 132.045 536.907 130.227L543.316 125.727C544.044 126.682 544.964 127.773 546.078 129C547.191 130.25 548.714 131.33 550.646 132.239C552.6 133.17 555.157 133.636 558.316 133.636C562.544 133.636 566.032 132.614 568.782 130.568C571.532 128.523 572.907 125.318 572.907 120.954V110.318H572.225C571.634 111.273 570.794 112.455 569.703 113.864C568.634 115.25 567.089 116.489 565.066 117.579C563.066 118.648 560.362 119.182 556.953 119.182C552.725 119.182 548.93 118.182 545.566 116.182C542.225 114.182 539.578 111.273 537.623 107.454C535.691 103.636 534.725 99 534.725 93.5454C534.725 88.1818 535.669 83.5113 537.555 79.534C539.441 75.534 542.066 72.4431 545.43 70.2613C548.794 68.0568 552.68 66.9545 557.089 66.9545C560.498 66.9545 563.203 67.5227 565.203 68.659C567.225 69.7727 568.771 71.0454 569.839 72.4772C570.93 73.8863 571.771 75.0454 572.362 75.9545H573.18V67.6363H580.953V121.5C580.953 126 579.93 129.659 577.884 132.477C575.862 135.318 573.134 137.398 569.703 138.716C566.294 140.057 562.498 140.727 558.316 140.727ZM558.044 111.954C561.271 111.954 563.998 111.216 566.225 109.739C568.453 108.261 570.146 106.136 571.305 103.364C572.464 100.591 573.044 97.2727 573.044 93.409C573.044 89.6363 572.475 86.3068 571.339 83.4204C570.203 80.534 568.521 78.2727 566.294 76.6363C564.066 75 561.316 74.1818 558.044 74.1818C554.634 74.1818 551.794 75.0454 549.521 76.7727C547.271 78.5 545.578 80.8181 544.441 83.7272C543.328 86.6363 542.771 89.8636 542.771 93.409C542.771 97.0454 543.339 100.261 544.475 103.057C545.634 105.829 547.339 108.011 549.589 109.602C551.862 111.17 554.68 111.954 558.044 111.954Z" fill="white"/>
<path d="M611.394 121.091C606.349 121.091 601.997 119.977 598.338 117.75C594.701 115.5 591.894 112.364 589.917 108.341C587.963 104.295 586.985 99.5909 586.985 94.2272C586.985 88.8636 587.963 84.1363 589.917 80.0454C591.894 75.9318 594.644 72.7272 598.167 70.4318C601.713 68.1136 605.849 66.9545 610.576 66.9545C613.304 66.9545 615.997 67.409 618.656 68.3181C621.315 69.2272 623.735 70.7045 625.917 72.75C628.099 74.7727 629.838 77.4545 631.133 80.7954C632.429 84.1363 633.076 88.25 633.076 93.1363V96.5454H592.713V89.5909H624.894C624.894 86.6363 624.304 84 623.122 81.6818C621.963 79.3636 620.304 77.534 618.144 76.1931C616.008 74.8522 613.485 74.1818 610.576 74.1818C607.372 74.1818 604.599 74.9772 602.258 76.5681C599.94 78.1363 598.156 80.1818 596.906 82.7045C595.656 85.2272 595.031 87.9318 595.031 90.8181V95.4545C595.031 99.409 595.713 102.761 597.076 105.511C598.463 108.239 600.383 110.318 602.838 111.75C605.292 113.159 608.144 113.864 611.394 113.864C613.508 113.864 615.417 113.568 617.122 112.977C618.849 112.364 620.338 111.454 621.588 110.25C622.838 109.023 623.803 107.5 624.485 105.682L632.258 107.864C631.44 110.5 630.065 112.818 628.133 114.818C626.201 116.795 623.815 118.341 620.974 119.454C618.133 120.545 614.94 121.091 611.394 121.091Z" fill="white"/>
<path d="M639.075 120V67.6363H646.848V75.5454H647.393C648.348 72.9545 650.075 70.8522 652.575 69.2386C655.075 67.625 657.893 66.8181 661.029 66.8181C661.62 66.8181 662.359 66.8295 663.245 66.8522C664.132 66.875 664.802 66.909 665.257 66.9545V75.1363C664.984 75.0681 664.359 74.9659 663.382 74.8295C662.427 74.6704 661.416 74.5909 660.348 74.5909C657.802 74.5909 655.529 75.125 653.529 76.1931C651.552 77.2386 649.984 78.6931 648.825 80.5568C647.689 82.3977 647.12 84.5 647.12 86.8636V120H639.075Z" fill="white"/>
<path d="M164.687 120.406L119.512 67.1721L154.135 37.7908L160.995 45.8746L136.016 67.0723L148.28 81.5244L171.466 61.8487L178.326 69.9325L155.14 89.6082L167.47 104.138L192.657 82.7641L199.518 90.8479L164.687 120.406Z" fill="white"/>
</svg>
